<svg xmlns:xlink="http://www.w3.org/1999/xlink" version="1.1" class="highcharts-root" style="font-family: Roboto; font-size: 12px;" xmlns="http://www.w3.org/2000/svg" width="650" height="400" viewBox="0 0 650 400" aria-label="Interactive chart" aria-hidden="false"><desc aria-hidden="true">Created with Highcharts 10.3.1</desc><defs aria-hidden="true"><clipPath id="highcharts-ol1eezu-379-"><rect x="0" y="0" width="630" height="300" fill="none"></rect></clipPath><clipPath id="highcharts-ol1eezu-386-"><rect x="0" y="0" width="801.1061266653973" height="127.5" fill="none"></rect></clipPath><clipPath id="highcharts-ol1eezu-387"><circle cx="315" cy="150" r="127.5"></circle></clipPath><clipPath id="highcharts-ol1eezu-394"><circle cx="315" cy="150" r="127.5"></circle></clipPath><clipPath id="highcharts-ol1eezu-401"><circle cx="315" cy="150" r="127.5"></circle></clipPath><clipPath id="highcharts-ol1eezu-408"><circle cx="315" cy="150" r="127.5"></circle></clipPath><clipPath id="highcharts-ol1eezu-415"><circle cx="315" cy="150" r="127.5"></circle></clipPath></defs><rect fill="transparent" class="highcharts-background" x="0" y="0" width="650" height="400" rx="0" ry="0" aria-hidden="true"></rect><rect fill="none" class="highcharts-plot-background" x="10" y="47" width="630" height="300" aria-hidden="true"></rect><g class="highcharts-pane-group" data-z-index="0" aria-hidden="true"></g><g class="highcharts-grid highcharts-xaxis-grid highcharts-radial-axis-grid" data-z-index="1" aria-hidden="true"><path fill="none" stroke="#ffffff" stroke-width="1" stroke-dasharray="none" data-z-index="1" class="highcharts-grid-line" d="M 325 197 L 388.75 86.58176101748407" opacity="1"></path><path fill="none" stroke="#ffffff" stroke-width="1" stroke-dasharray="none" data-z-index="1" class="highcharts-grid-line" d="M 325 197 L 452.5 197" opacity="1"></path><path fill="none" stroke="#ffffff" stroke-width="1" stroke-dasharray="none" data-z-index="1" class="highcharts-grid-line" d="M 325 197 L 388.75000000000006 307.4182389825159" opacity="1"></path><path fill="none" stroke="#ffffff" stroke-width="1" stroke-dasharray="none" data-z-index="1" class="highcharts-grid-line" d="M 325 197 L 261.25 307.41823898251596" opacity="1"></path><path fill="none" stroke="#ffffff" stroke-width="1" stroke-dasharray="none" data-z-index="1" class="highcharts-grid-line" d="M 325 197 L 197.5 197.00000000000003" opacity="1"></path><path fill="none" stroke="#ffffff" stroke-width="1" stroke-dasharray="none" data-z-index="1" class="highcharts-grid-line" d="M 325 197 L 261.24999999999994 86.58176101748411" opacity="1"></path><path fill="none" stroke="#ffffff" stroke-width="1" stroke-dasharray="none" data-z-index="1" class="highcharts-grid-line" d="M 325 197 L 388.75 86.58176101748408" opacity="1"></path></g><g class="highcharts-grid highcharts-yaxis-grid highcharts-radial-axis-grid" data-z-index="1" aria-hidden="true"><path fill="none" stroke="#ffffff" stroke-width="1" stroke-dasharray="none" data-z-index="1" class="highcharts-grid-line" d="M 325 197 L 325 197 L 325 197 L 325 197 L 325 197 L 325 197 L 325 197 L 325 197" opacity="1"></path><path fill="none" stroke="#ffffff" stroke-width="1" stroke-dasharray="none" data-z-index="1" class="highcharts-grid-line" d="M 356.875 141.79088050874205 L 388.75 197 L 356.875 252.20911949125795 L 293.125 252.20911949125795 L 261.25 197 L 293.125 141.79088050874208 L 356.875 141.79088050874205 L 356.875 141.79088050874205" opacity="1"></path><path fill="none" stroke="#ffffff" stroke-width="1" stroke-dasharray="none" data-z-index="1" class="highcharts-grid-line" d="M 388.75 86.58176101748408 L 452.5 197 L 388.75000000000006 307.4182389825159 L 261.25000000000006 307.4182389825159 L 197.5 197.00000000000003 L 261.24999999999994 86.58176101748413 L 388.75 86.5817610174841 L 388.75 86.58176101748408" opacity="1"></path></g><rect fill="none" class="highcharts-plot-border" data-z-index="1" x="10" y="47" width="630" height="300" aria-hidden="true"></rect><g class="highcharts-axis highcharts-xaxis highcharts-radial-axis" data-z-index="2" aria-hidden="true"><path fill="none" class="highcharts-axis-line" data-z-index="7" d="M 325 69.5 A 127.5 127.5 0 1 1 324.87250002124995 69.50006374999468 M 325 197 A 0 0 0 1 0 325 197"></path></g><g class="highcharts-axis highcharts-yaxis highcharts-radial-axis" data-z-index="2" aria-hidden="true"><path fill="none" class="highcharts-axis-line" data-z-index="7" d="M 325 197 L 325 69.5"></path></g><g class="highcharts-series-group" data-z-index="3" aria-hidden="false"><g class="highcharts-series highcharts-series-0 highcharts-line-series" data-z-index="0.1" opacity="1" transform="translate(10,47) scale(1 1)" clip-path="url(#highcharts-ol1eezu-387)" aria-hidden="true"><path fill="none" d="M 362.6531250000001 67.4623663605694 L 406.48125 150.0000000000003 L 368.86874999999947 243.30341194022628 L 259.69687499999924 245.78782231733214 L 249.97500000000002 149.99999999999932 L 269.73750000000103 71.60305032241313 L 362.6531250000001 67.4623663605694" class="highcharts-graph" data-z-index="1" stroke="#6f58e9" stroke-width="2" stroke-linejoin="round" stroke-linecap="round"></path></g><g class="highcharts-markers highcharts-series-0 highcharts-line-series" data-z-index="0.1" opacity="1" transform="translate(10,47) scale(1 1)" clip-path="none" aria-hidden="false" role="region" tabindex="-1" aria-label="Item 1, line 1 of 5 with 6 data points." style="outline: none;"><path fill="#6f58e9" d="M 362 71 A 4 4 0 1 1 362.00399999933336 70.99999800000016 Z" opacity="1" class="highcharts-point" tabindex="-1" role="img" aria-label="Action, 62. Item 1." style="outline: none;"></path><path fill="#6f58e9" d="M 406 154 A 4 4 0 1 1 406.00399999933336 153.99999800000018 Z" opacity="1" class="highcharts-point" tabindex="-1" role="img" aria-label="Anime, 61. Item 1." style="outline: none;"></path><path fill="#6f58e9" d="M 368 247 A 4 4 0 1 1 368.00399999933336 246.99999800000018 Z" opacity="1" class="highcharts-point" tabindex="-1" role="img" aria-label="Fantasy, 68. Item 1." style="outline: none;"></path><path fill="#6f58e9" d="M 259 250 A 4 4 0 1 1 259.00399999933336 249.99999800000018 Z" opacity="1" class="highcharts-point" tabindex="-1" role="img" aria-label="Adventure, 18. Item 1." style="outline: none;"></path><path fill="#6f58e9" d="M 249 154 A 4 4 0 1 1 249.00399999933333 153.99999800000018 Z" opacity="1" class="highcharts-point" tabindex="-1" role="img" aria-label="Drama, 41. Item 1." style="outline: none;"></path><path fill="#6f58e9" d="M 269 76 A 4 4 0 1 1 269.00399999933336 75.99999800000016 Z" opacity="1" class="highcharts-point" tabindex="-1" role="img" aria-label="Comedy, 30. Item 1." style="outline: none;"></path></g><g class="highcharts-series highcharts-series-1 highcharts-line-series" data-z-index="0.1" opacity="1" transform="translate(10,47) scale(1 1)" clip-path="url(#highcharts-ol1eezu-394)" aria-hidden="true"><path fill="none" d="M 352.7718750000001 84.57719340285936 L 387.0375 150.00000000000026 L 358.03124999999955 224.53231131319853 L 262.5656249999993 240.81900156311895 L 263.04375 149.99999999999946 L 274.5187500000009 79.88441824610187 L 352.7718750000001 84.57719340285936" class="highcharts-graph" data-z-index="1" stroke="#94d13d" stroke-width="2" stroke-linejoin="round" stroke-linecap="round"></path></g><g class="highcharts-markers highcharts-series-1 highcharts-line-series" data-z-index="0.1" opacity="1" transform="translate(10,47) scale(1 1)" clip-path="none" aria-hidden="false" role="region" tabindex="-1" aria-label="Item 2, line 2 of 5 with 6 data points." style="outline: none;"><path fill="#94d13d" d="M 352 81 L 356 85 L 352 89 L 348 85 Z" opacity="1" class="highcharts-point" tabindex="-1" role="img" aria-label="Action, 93. Item 2." style="outline: none;"></path><path fill="#94d13d" d="M 387 146 L 391 150 L 387 154 L 383 150 Z" opacity="1" class="highcharts-point" tabindex="-1" role="img" aria-label="Anime, 80. Item 2." style="outline: none;"></path><path fill="#94d13d" d="M 358 221 L 362 225 L 358 229 L 354 225 Z" opacity="1" class="highcharts-point" tabindex="-1" role="img" aria-label="Fantasy, 94. Item 2." style="outline: none;"></path><path fill="#94d13d" d="M 262 237 L 266 241 L 262 245 L 258 241 Z" opacity="1" class="highcharts-point" tabindex="-1" role="img" aria-label="Adventure, 95. Item 2." style="outline: none;"></path><path fill="#94d13d" d="M 263 146 L 267 150 L 263 154 L 259 150 Z" opacity="1" class="highcharts-point" tabindex="-1" role="img" aria-label="Drama, 15. Item 2." style="outline: none;"></path><path fill="#94d13d" d="M 274 76 L 278 80 L 274 84 L 270 80 Z" opacity="1" class="highcharts-point" tabindex="-1" role="img" aria-label="Comedy, 79. Item 2." style="outline: none;"></path></g><g class="highcharts-series highcharts-series-2 highcharts-line-series" data-z-index="0.1" opacity="1" transform="translate(10,47) scale(1 1)" clip-path="url(#highcharts-ol1eezu-401)" aria-hidden="true"><path fill="none" d="M 337.95000000000005 110.2494339662943 L 361.5375 150.00000000000017 L 343.0499999999997 198.58402515230716 L 277.7062499999995 214.5946698047715 L 267.825 149.99999999999952 L 287.1093750000006 101.69202044514893 L 337.95000000000005 110.2494339662943" class="highcharts-graph" data-z-index="1" stroke="black" stroke-width="2" stroke-linejoin="round" stroke-linecap="round"></path></g><g class="highcharts-markers highcharts-series-2 highcharts-line-series" data-z-index="0.1" opacity="1" transform="translate(10,47) scale(1 1)" clip-path="none" aria-hidden="false" role="region" tabindex="-1" aria-label="Item 3, line 3 of 5 with 6 data points." style="outline: none;"><path fill="black" d="M 333 106 L 341 106 L 341 114 L 333 114 Z" opacity="1" class="highcharts-point" tabindex="-1" role="img" aria-label="Action, 53. Item 3." style="outline: none;"></path><path fill="black" d="M 357 146 L 365 146 L 365 154 L 357 154 Z" opacity="1" class="highcharts-point" tabindex="-1" role="img" aria-label="Anime, 45. Item 3." style="outline: none;"></path><path fill="black" d="M 339 195 L 347 195 L 347 203 L 339 203 Z" opacity="1" class="highcharts-point" tabindex="-1" role="img" aria-label="Fantasy, 12. Item 3." style="outline: none;"></path><path fill="black" d="M 273 211 L 281 211 L 281 219 L 273 219 Z" opacity="1" class="highcharts-point" tabindex="-1" role="img" aria-label="Adventure, 98. Item 3." style="outline: none;"></path><path fill="black" d="M 263 146 L 271 146 L 271 154 L 263 154 Z" opacity="1" class="highcharts-point" tabindex="-1" role="img" aria-label="Drama, 49. Item 3." style="outline: none;"></path><path fill="black" d="M 283 98 L 291 98 L 291 106 L 283 106 Z" opacity="1" class="highcharts-point" tabindex="-1" role="img" aria-label="Comedy, 54. Item 3." style="outline: none;"></path></g><g class="highcharts-series highcharts-series-3 highcharts-line-series" data-z-index="0.1" opacity="1" transform="translate(10,47) scale(1 1)" clip-path="url(#highcharts-ol1eezu-408)" aria-hidden="true"><path fill="none" d="M 329.503125 124.87985063147764 L 347.19375 150.0000000000001 L 341.13749999999976 195.2714779828317 L 293.3249999999997 187.54220125405524 L 283.44375 149.99999999999966 L 295.71562500000044 116.59848270778869 L 329.503125 124.87985063147764" class="highcharts-graph" data-z-index="1" stroke="#d40511" stroke-width="2" stroke-linejoin="round" stroke-linecap="round"></path></g><g class="highcharts-markers highcharts-series-3 highcharts-line-series" data-z-index="0.1" opacity="1" transform="translate(10,47) scale(1 1)" clip-path="none" aria-hidden="false" role="region" tabindex="-1" aria-label="Item 4, line 4 of 5 with 6 data points." style="outline: none;"><path fill="#d40511" d="M 329 121 L 333 129 L 325 129 Z" opacity="1" class="highcharts-point" tabindex="-1" role="img" aria-label="Action, 63. Item 4." style="outline: none;"></path><path fill="#d40511" d="M 347 146 L 351 154 L 343 154 Z" opacity="1" class="highcharts-point" tabindex="-1" role="img" aria-label="Anime, 56. Item 4." style="outline: none;"></path><path fill="#d40511" d="M 341 191 L 345 199 L 337 199 Z" opacity="1" class="highcharts-point" tabindex="-1" role="img" aria-label="Fantasy, 81. Item 4." style="outline: none;"></path><path fill="#d40511" d="M 293 184 L 297 192 L 289 192 Z" opacity="1" class="highcharts-point" tabindex="-1" role="img" aria-label="Adventure, 68. Item 4." style="outline: none;"></path><path fill="#d40511" d="M 283 146 L 287 154 L 279 154 Z" opacity="1" class="highcharts-point" tabindex="-1" role="img" aria-label="Drama, 12. Item 4." style="outline: none;"></path><path fill="#d40511" d="M 295 113 L 299 121 L 291 121 Z" opacity="1" class="highcharts-point" tabindex="-1" role="img" aria-label="Comedy, 79. Item 4." style="outline: none;"></path></g><g class="highcharts-series highcharts-series-4 highcharts-line-series" data-z-index="0.1" opacity="1" transform="translate(10,47) scale(1 1)" clip-path="url(#highcharts-ol1eezu-415)" aria-hidden="true"><path fill="none" d="M 319.46250000000003 142.2707232712239 L 329.34375 150.00000000000006 L 328.22812499999986 172.91178458887214 L 304.16249999999985 168.77110062702764 L 287.26875 149.99999999999972 L 308.30625000000015 138.40608490683573 L 319.46250000000003 142.2707232712239" class="highcharts-graph" data-z-index="1" stroke="#55722b" stroke-width="2" stroke-linejoin="round" stroke-linecap="round"></path></g><g class="highcharts-markers highcharts-series-4 highcharts-line-series" data-z-index="0.1" opacity="1" transform="translate(10,47) scale(1 1)" clip-path="none" aria-hidden="false" role="region" tabindex="-1" aria-label="Item 5, line 5 of 5 with 6 data points." style="outline: none;"><path fill="#55722b" d="M 315 138 L 323 138 L 319 146 Z" opacity="1" class="highcharts-point" tabindex="-1" role="img" aria-label="Action, 28. Item 5." style="outline: none;"></path><path fill="#55722b" d="M 325 146 L 333 146 L 329 154 Z" opacity="1" class="highcharts-point" tabindex="-1" role="img" aria-label="Anime, 45. Item 5." style="outline: none;"></path><path fill="#55722b" d="M 324 169 L 332 169 L 328 177 Z" opacity="1" class="highcharts-point" tabindex="-1" role="img" aria-label="Fantasy, 83. Item 5." style="outline: none;"></path><path fill="#55722b" d="M 300 165 L 308 165 L 304 173 Z" opacity="1" class="highcharts-point" tabindex="-1" role="img" aria-label="Adventure, 68. Item 5." style="outline: none;"></path><path fill="#55722b" d="M 283 146 L 291 146 L 287 154 Z" opacity="1" class="highcharts-point" tabindex="-1" role="img" aria-label="Drama, 87. Item 5." style="outline: none;"></path><path fill="#55722b" d="M 304 134 L 312 134 L 308 142 Z" opacity="1" class="highcharts-point" tabindex="-1" role="img" aria-label="Comedy, 42. Item 5." style="outline: none;"></path></g></g><text x="325" text-anchor="middle" class="highcharts-title" data-z-index="4" style="color: #ffffff; font-size: 18px; fill: #ffffff;" y="24" aria-hidden="true">Shows</text><text x="325" text-anchor="middle" class="highcharts-subtitle" data-z-index="4" style="color: #ffffff; fill: #ffffff;" y="46" aria-hidden="true"></text><text x="10" text-anchor="start" class="highcharts-caption" data-z-index="4" style="color: #ffffff; fill: #ffffff;" y="397" aria-hidden="true"></text><g class="highcharts-legend highcharts-no-tooltip" data-z-index="7" transform="translate(134,359)" aria-hidden="true"><rect fill="none" class="highcharts-legend-box" rx="0" ry="0" x="0" y="0" width="381" height="26"></rect><g data-z-index="1"><g><g class="highcharts-legend-item highcharts-line-series highcharts-color-undefined highcharts-series-4" data-z-index="1" transform="translate(8,3)"><path fill="none" d="M 0 11 L 16 11" class="highcharts-graph" stroke="#55722b" stroke-width="2"></path><path fill="#55722b" d="M 4 7 L 12 7 L 8 15 Z" class="highcharts-point" opacity="1"></path><text x="21" text-anchor="start" data-z-index="2" y="15" style="color: #ffffff; cursor: pointer; font-size: 12px; font-weight: bold; fill: #ffffff;">Item 5</text></g><g class="highcharts-legend-item highcharts-line-series highcharts-color-undefined highcharts-series-3" data-z-index="1" transform="translate(85.029296875,3)"><path fill="none" d="M 0 11 L 16 11" class="highcharts-graph" stroke="#d40511" stroke-width="2"></path><path fill="#d40511" d="M 8 7 L 12 15 L 4 15 Z" class="highcharts-point" opacity="1"></path><text x="21" y="15" text-anchor="start" data-z-index="2" style="color: #ffffff; cursor: pointer; font-size: 12px; font-weight: bold; fill: #ffffff;">Item 4</text></g><g class="highcharts-legend-item highcharts-line-series highcharts-color-undefined highcharts-series-2" data-z-index="1" transform="translate(162.05859375,3)"><path fill="none" d="M 0 11 L 16 11" class="highcharts-graph" stroke="black" stroke-width="2"></path><path fill="black" d="M 4 7 L 12 7 L 12 15 L 4 15 Z" class="highcharts-point" opacity="1"></path><text x="21" y="15" text-anchor="start" data-z-index="2" style="color: #ffffff; cursor: pointer; font-size: 12px; font-weight: bold; fill: #ffffff;">Item 3</text></g><g class="highcharts-legend-item highcharts-line-series highcharts-color-undefined highcharts-series-1" data-z-index="1" transform="translate(239.087890625,3)"><path fill="none" d="M 0 11 L 16 11" class="highcharts-graph" stroke="#94d13d" stroke-width="2"></path><path fill="#94d13d" d="M 8 7 L 12 11 L 8 15 L 4 11 Z" class="highcharts-point" opacity="1"></path><text x="21" y="15" text-anchor="start" data-z-index="2" style="color: #ffffff; cursor: pointer; font-size: 12px; font-weight: bold; fill: #ffffff;">Item 2</text></g><g class="highcharts-legend-item highcharts-line-series highcharts-color-undefined highcharts-series-0" data-z-index="1" transform="translate(316.1171875,3)"><path fill="none" d="M 0 11 L 16 11" class="highcharts-graph" stroke="#6f58e9" stroke-width="2"></path><path fill="#6f58e9" d="M 8 15 A 4 4 0 1 1 8.003999999333336 14.999998000000167 Z" class="highcharts-point" opacity="1"></path><text x="21" y="15" text-anchor="start" data-z-index="2" style="color: #ffffff; cursor: pointer; font-size: 12px; font-weight: bold; fill: #ffffff;">Item 1</text></g></g></g></g><g class="highcharts-axis-labels highcharts-xaxis-labels highcharts-radial-axis-labels" data-z-index="7" aria-hidden="true"><text x="396.25" transform="translate(0,0)" style="color: #ffffff; cursor: default; font-size: 11px; fill: #ffffff;" text-anchor="start" y="78.09137996071749" opacity="1">Action</text><text x="467.5" transform="translate(0,0)" style="color: #ffffff; cursor: default; font-size: 11px; fill: #ffffff;" text-anchor="start" y="201.5" opacity="1">Anime</text><text x="396.25000000000006" transform="translate(0,0)" style="color: #ffffff; cursor: default; font-size: 11px; fill: #ffffff;" text-anchor="start" y="324.9086200392825" opacity="1">Fantasy</text><text x="253.75000000000003" transform="translate(0,0)" style="color: #ffffff; cursor: default; font-size: 11px; fill: #ffffff;" text-anchor="end" y="324.9086200392825" opacity="1">Adventure</text><text x="182.5" transform="translate(0,0)" style="color: #ffffff; cursor: default; font-size: 11px; fill: #ffffff;" text-anchor="end" y="201.50000000000003" opacity="1">Drama</text><text x="253.74999999999994" transform="translate(0,0)" style="color: #ffffff; cursor: default; font-size: 11px; fill: #ffffff;" text-anchor="end" y="78.09137996071753" opacity="1">Comedy</text><text x="0" transform="translate(0,0)" style="color: #ffffff; cursor: default; font-size: 11px; fill: #ffffff;" text-anchor="start" visibility="hidden">6</text></g><g class="highcharts-axis-labels highcharts-yaxis-labels highcharts-radial-axis-labels" data-z-index="7" aria-hidden="true"><text x="322" text-anchor="end" transform="translate(0,0)" style="color: #ffffff; cursor: default; font-size: 11px; fill: #ffffff;" y="195" opacity="1">0</text><text x="322" text-anchor="end" transform="translate(0,0)" style="color: #ffffff; cursor: default; font-size: 11px; fill: #ffffff;" y="131.25" opacity="1">200</text><text x="0" text-anchor="end" transform="translate(0,0)" style="color: #ffffff; cursor: default; font-size: 11px; fill: #ffffff;" visibility="hidden">400</text></g><text x="640" class="highcharts-credits" text-anchor="end" data-z-index="8" y="395" style="cursor: pointer; color: rgb(153, 153, 153); font-size: 9px; fill: rgb(153, 153, 153);" aria-label="Chart credits: Highcharts.com" aria-hidden="false">Highcharts.com</text></svg>