<svg width="20" height="20" viewBox="0 0 20 20" fill="none" xmlns="http://www.w3.org/2000/svg">
<path fill-rule="evenodd" clip-rule="evenodd" d="M10 1C5.02944 1 1 5.02944 1 10C1 14.9706 5.02944 19 10 19C14.9706 19 19 14.9706 19 10C19 5.02944 14.9706 1 10 1ZM0 10C0 4.47715 4.47715 0 10 0C15.5228 0 20 4.47715 20 10C20 15.5228 15.5228 20 10 20C4.47715 20 0 15.5228 0 10ZM10 5.75C8.70213 5.75 7.65 6.80213 7.65 8.1H6.65C6.65 6.24985 8.14985 4.75 10 4.75C11.8502 4.75 13.35 6.24985 13.35 8.1C13.35 9.07209 12.7207 9.8364 12.1087 10.424C11.8448 10.6773 11.5596 10.9198 11.2959 11.1441C11.2463 11.1862 11.1975 11.2277 11.1497 11.2686C10.9002 11.4817 10.6801 11.6752 10.5 11.8593V11.9H10.4608C10.4307 11.9316 10.4018 11.9629 10.3743 11.994L10.2681 11.9H9.5V11.6625C9.5 11.5403 9.54472 11.4224 9.62572 11.331C9.87669 11.0476 10.1924 10.7712 10.5001 10.5083C10.5515 10.4644 10.6027 10.4208 10.6537 10.3775C10.9176 10.1529 11.176 9.93308 11.4162 9.70256C12.0042 9.13811 12.35 8.62909 12.35 8.1C12.35 6.80213 11.2979 5.75 10 5.75ZM10 13.3C10.2761 13.3 10.5 13.5239 10.5 13.8V14.75C10.5 15.0261 10.2761 15.25 10 15.25C9.72386 15.25 9.5 15.0261 9.5 14.75V13.8C9.5 13.5239 9.72386 13.3 10 13.3Z" fill="white"/>
</svg>
