<svg width="16" height="16" viewBox="0 0 16 16" fill="none" xmlns="http://www.w3.org/2000/svg">
<g id="IONIcon/H/home/default" clip-path="url(#clip0_1_274)">
<path id="Vector" d="M8.1629 3.55122C8.11928 3.50949 8.06124 3.48621 8.00088 3.48621C7.94052 3.48621 7.88249 3.50949 7.83887 3.55122L2.44532 8.70366C2.42241 8.72557 2.40419 8.7519 2.39175 8.78105C2.37932 8.81021 2.37292 8.84159 2.37296 8.87329L2.37208 13.709C2.37208 13.9577 2.47085 14.1961 2.64667 14.3719C2.82248 14.5478 3.06094 14.6465 3.30958 14.6465H6.12501C6.24933 14.6465 6.36855 14.5971 6.45646 14.5092C6.54437 14.4213 6.59376 14.3021 6.59376 14.1778V10.1934C6.59376 10.1312 6.61845 10.0716 6.6624 10.0277C6.70636 9.98372 6.76597 9.95903 6.82813 9.95903H9.17188C9.23404 9.95903 9.29365 9.98372 9.33761 10.0277C9.38156 10.0716 9.40626 10.1312 9.40626 10.1934V14.1778C9.40626 14.3021 9.45564 14.4213 9.54355 14.5092C9.63146 14.5971 9.75068 14.6465 9.875 14.6465H12.6893C12.9379 14.6465 13.1764 14.5478 13.3522 14.3719C13.528 14.1961 13.6268 13.9577 13.6268 13.709V8.87329C13.6268 8.84159 13.6204 8.81021 13.608 8.78105C13.5955 8.7519 13.5773 8.72557 13.5544 8.70366L8.1629 3.55122Z" fill="white"/>
<path id="Vector_2" d="M14.8825 7.73736L12.6911 5.64088V2.45953C12.6911 2.33521 12.6417 2.21598 12.5538 2.12808C12.4659 2.04017 12.3467 1.99078 12.2223 1.99078H10.8161C10.6918 1.99078 10.5725 2.04017 10.4846 2.12808C10.3967 2.21598 10.3473 2.33521 10.3473 2.45953V3.39703L8.65046 1.77457C8.49167 1.61403 8.25554 1.52203 8.00036 1.52203C7.74606 1.52203 7.51052 1.61403 7.35173 1.77487L1.12028 7.73678C0.938057 7.91256 0.915206 8.20172 1.08103 8.39215C1.12267 8.44022 1.17365 8.47931 1.23088 8.50705C1.28811 8.53478 1.35038 8.55058 1.41391 8.55349C1.47744 8.55639 1.54089 8.54634 1.60041 8.52394C1.65993 8.50155 1.71427 8.46727 1.76013 8.4232L7.83923 2.61422C7.88284 2.5725 7.94088 2.54921 8.00124 2.54921C8.0616 2.54921 8.11963 2.5725 8.16325 2.61422L14.2429 8.4232C14.3325 8.50909 14.4524 8.55596 14.5765 8.55354C14.7006 8.55113 14.8186 8.49962 14.9048 8.41031C15.0846 8.22399 15.0697 7.91637 14.8825 7.73736Z" fill="white"/>
</g>
<defs>
<clipPath id="clip0_1_274">
<rect width="15" height="15" fill="white" transform="translate(0.5 0.583679)"/>
</clipPath>
</defs>
</svg>
