<svg width="15" height="16" viewBox="0 0 15 16" fill="none" xmlns="http://www.w3.org/2000/svg">
<g id="IONIcon/P/person/default">
<path id="Vector" d="M9.74525 1.97543C9.17513 1.3599 8.37884 1.02094 7.49994 1.02094C6.61634 1.02094 5.81742 1.35785 5.24994 1.96957C4.6763 2.58802 4.39681 3.42855 4.46244 4.33617C4.59251 6.12679 5.95511 7.58343 7.49994 7.58343C9.04476 7.58343 10.405 6.12709 10.5371 4.33675C10.6036 3.43734 10.3224 2.59857 9.74525 1.97543Z" fill="white"/>
<path id="Vector_2" d="M12.6562 14.1453H2.34371C2.20873 14.147 2.07505 14.1187 1.95241 14.0623C1.82977 14.0059 1.72124 13.9228 1.63473 13.8192C1.4443 13.5916 1.36754 13.2807 1.42438 12.9664C1.67164 11.5947 2.44332 10.4424 3.65621 9.63354C4.73375 8.91548 6.09869 8.52026 7.49996 8.52026C8.90123 8.52026 10.2662 8.91577 11.3437 9.63354C12.5566 10.4421 13.3283 11.5944 13.5755 12.9661C13.6324 13.2804 13.5556 13.5913 13.3652 13.8189C13.2787 13.9226 13.1702 14.0057 13.0475 14.0621C12.9249 14.1186 12.7912 14.147 12.6562 14.1453Z" fill="white"/>
</g>
</svg>
